<?xml version="1.0" encoding="UTF-8"?>
<svg width="490px" height="960px" viewBox="0 0 490 960" version="1.1" xmlns="http://www.w3.org/2000/svg" xmlns:xlink="http://www.w3.org/1999/xlink">
    <!-- Generator: Sketch 63.1 (92452) - https://sketch.com -->
    <title>Group 17</title>
    <desc>Created with Sketch.</desc>
    <g id="Page-1" stroke="none" stroke-width="1" fill="none" fill-rule="evenodd" opacity="0.0701580684">
        <g id="Sign-in" fill="#FFFFFF">
            <g id="Group-11" transform="translate(0.000000, 0.000000)">
                <g id="Group-17" transform="translate(-103.024969, -9.000000)">
                    <path d="M0,6 L0,28.8448249 L0,28.8448249 L263.492879,275.00892 C275.07935,285.833399 281.729081,300.92949 281.894847,316.784716 L284.384432,554.908418 C284.564871,572.166968 292.422226,588.44858 305.820962,599.328102 L597.91399,836.502164 L597.91399,836.502164 L597.718634,598.391404 L494.038008,517.783043 C480.096634,506.944072 471.852698,490.344111 471.641857,472.686231 L469.269699,274.019004 C469.07178,257.443416 461.79092,241.744645 449.26543,230.886405 L182.927122,0 L182.927122,0 L6,0 C2.6862915,6.08718376e-16 -4.05812251e-16,2.6862915 0,6 Z" id="Path-6"></path>
                    <path d="M345.955201,13 L549.471956,185.4371 C556.199427,191.137199 560.078578,199.508299 560.078578,208.325895 L560.078578,390.882326 C560.078578,399.871331 564.109352,408.386654 571.061585,414.084782 L624.086382,457.544498 L624.086382,457.544498 L624.086382,19 C624.086382,15.6862915 621.40009,13 618.086382,13 L345.955201,13 L345.955201,13 Z" id="Path-7"></path>
                    <path d="M62.9552011,565 L266.471956,737.4371 C273.199427,743.137199 277.078578,751.508299 277.078578,760.325895 L277.078578,942.882326 C277.078578,951.871331 281.109352,960.386654 288.061585,966.084782 L341.086382,1009.5445 L341.086382,1009.5445 L341.086382,571 C341.086382,567.686292 338.40009,565 335.086382,565 L62.9552011,565 L62.9552011,565 Z" id="Path-7-Copy" transform="translate(202.020792, 787.272249) scale(-1, -1) translate(-202.020792, -787.272249) "></path>
                </g>
            </g>
        </g>
    </g>
</svg>